# xmcd CD database file
#
# Track frame offsets:
#	150
#	7510
#	19617
#	22437
#	40270
#	42907
#	56165
#	59322
#	72757
#	77657
#	89227
#	93282
#	105195
#	117302
#	135132
#	148392
#	161837
#	173472
#	185137
#
# Disc length: 2705 seconds
#
# Revision: 0
# Processed by: cddbd v1.5.1PL0 Copyright (c) Steve Scherf et al.
# Submitted via: CDex 1.51
#
DISCID=fa0a8f13
DTITLE=Various Artist - おジャ魔女ドッカ〜ン!CDくらぶその6 キャラクター・ヴォーカルコレクション6年2組盤
DYEAR=2002
DGENRE=Anime
TTITLE0=おジャ魔女トーク1
TTITLE1=ソフトクリームを食べながら
TTITLE2=おジャ魔女トーク2
TTITLE3=お笑いの道
TTITLE4=おジャ魔女トーク3
TTITLE5=フラワーベッド
TTITLE6=おジャ魔女トーク4
TTITLE7=忘れない…
TTITLE8=おジャ魔女トーク5
TTITLE9=ブツバツナイスガイ
TTITLE10=おジャ魔女トーク6
TTITLE11=ってゆーか、優香なの
TTITLE12=ソフトクリームを食べながら（オリジナル・カラオケ）
TTITLE13=お笑いの道（オリジナル・カラオケ）
TTITLE14=フラワーベッド（オリジナル・カラオケ）
TTITLE15=忘れない…（オリジナル・カラオケ）
TTITLE16=ブツバツナイスガイ（オリジナル・カラオケ）
TTITLE17=ってゆーか、優香なの（オリジナル・カラオケ）
TTITLE18=涙のブロークン ハート（オリジナル・カラオケ）
EXTD=YEAR: 2002
EXTT0=
EXTT1=
EXTT2=
EXTT3=
EXTT4=
EXTT5=
EXTT6=
EXTT7=
EXTT8=
EXTT9=
EXTT10=
EXTT11=
EXTT12=
EXTT13=
EXTT14=
EXTT15=
EXTT16=
EXTT17=
EXTT18=
PLAYORDER=
